<svg xmlns="http://www.w3.org/2000/svg" xmlns:xlink="http://www.w3.org/1999/xlink" width="500" zoomAndPan="magnify" viewBox="0 0 375 374.999991" height="500" preserveAspectRatio="xMidYMid meet" version="1.0"><defs><clipPath id="a76c355fbf"><path d="M 19.511719 19.511719 L 355.511719 19.511719 L 355.511719 355.511719 L 19.511719 355.511719 Z M 19.511719 19.511719 " clip-rule="nonzero"/></clipPath></defs><g clip-path="url(#a76c355fbf)"><path fill="#000000" d="M 187.480469 19.546875 C 94.714844 19.546875 19.511719 94.75 19.511719 187.511719 C 19.511719 280.277344 94.714844 355.480469 187.480469 355.480469 C 280.242188 355.480469 355.511719 280.277344 355.511719 187.511719 C 355.511719 94.75 280.242188 19.546875 187.480469 19.546875 Z M 187.480469 342.410156 C 124.945312 342.410156 74.273438 273.035156 74.273438 187.511719 C 74.273438 101.988281 124.945312 32.617188 187.480469 32.617188 C 250.015625 32.617188 300.753906 101.988281 300.753906 187.511719 C 300.753906 273.035156 250.015625 342.410156 187.480469 342.410156 Z M 187.480469 342.410156 " fill-opacity="1" fill-rule="nonzero"/></g></svg>